<svg width="183" height="68" viewBox="0 0 183 68" fill="none" xmlns="http://www.w3.org/2000/svg">
<g filter="url(#filter0_d_75_6916)">
<g clip-path="url(#clip0_75_6916)">
<path d="M23.8787 13.9675C24.2982 14.3871 24.8328 14.6728 25.4147 14.7885C25.9966 14.9043 26.5998 14.8449 27.1481 14.6179C27.6963 14.3908 28.1648 14.0063 28.4945 13.513C28.824 13.0196 29 12.4396 29 11.8462C29 11.2529 28.824 10.6728 28.4945 10.1795C28.1648 9.68616 27.6963 9.30164 27.1481 9.07452C26.5998 8.84748 25.9966 8.78808 25.4147 8.90385C24.8328 9.01963 24.2982 9.30541 23.8787 9.725C23.3161 10.2876 23 11.0506 23 11.8462C23 12.6419 23.3161 13.4049 23.8787 13.9675Z" fill="#030303"/>
<path d="M33.0295 33.1548L46.6337 19.4774C46.9228 19.1867 47.1522 18.8417 47.3088 18.4618C47.4652 18.082 47.5459 17.675 47.5459 17.2638C47.5459 16.8527 47.4654 16.4456 47.309 16.0658C47.1525 15.686 46.9231 15.3408 46.6339 15.0501C46.3449 14.7593 46.0016 14.5288 45.6238 14.3714C45.2461 14.214 44.8412 14.1331 44.4322 14.133C44.0233 14.133 43.6184 14.2139 43.2406 14.3713C42.8627 14.5285 42.5195 14.7591 42.2303 15.0498L36.4804 20.8307C36.248 21.0047 35.9612 21.0889 35.6722 21.0679C35.3833 21.0471 35.1115 20.9223 34.9063 20.7167C34.6772 20.4876 34.5474 20.1769 34.5449 19.852C34.5425 19.5272 34.6677 19.2144 34.8934 18.982L39.1025 14.7503C39.6864 14.1632 40.0144 13.3668 40.0144 12.5366C40.0143 11.7063 39.6862 10.9101 39.1022 10.323C38.5182 9.73594 37.7261 9.40617 36.9003 9.40617C36.0744 9.40626 35.2825 9.73611 34.6985 10.3233L22.9662 22.1192C22.8538 22.2323 22.7203 22.3219 22.5734 22.3831C22.4265 22.4444 22.269 22.4758 22.11 22.4758C21.9509 22.4758 21.7935 22.4444 21.6466 22.3831C21.4997 22.3219 21.3661 22.2323 21.2537 22.1192C21.1413 22.0062 21.0521 21.8719 20.9912 21.7243C20.9304 21.5766 20.8991 21.4182 20.8991 21.2583C20.8991 21.0985 20.9304 20.9402 20.9912 20.7925C21.0521 20.6447 21.1413 20.5105 21.2537 20.3975L21.9782 19.6722C22.5622 19.085 22.8901 18.2888 22.89 17.4584C22.89 16.6281 22.5619 15.8319 21.9779 15.2448C21.3939 14.6578 20.6019 14.328 19.776 14.3281C18.9502 14.3281 18.1582 14.658 17.5742 15.2451L12.6535 20.1923C12.0696 20.7793 11.7414 21.5756 11.7414 22.4059C11.7414 23.2361 12.0693 24.0325 12.6533 24.6196C13.2372 25.2068 14.0292 25.5366 14.855 25.5367C15.6809 25.5367 16.473 25.2069 17.0569 24.6199L17.771 23.8995C17.9981 23.6712 18.3063 23.543 18.6275 23.543C18.9487 23.5431 19.2568 23.6714 19.4838 23.8999C19.711 24.1282 19.8385 24.438 19.8385 24.7609C19.8384 25.0839 19.7107 25.3936 19.4836 25.6219L12.1283 33.013C11.5444 33.6001 11.2163 34.3965 11.2164 35.2267C11.2165 36.0571 11.5446 36.8533 12.1286 37.4403C12.7126 38.0274 13.5047 38.3572 14.3305 38.3571C15.1563 38.357 15.9483 38.0272 16.5323 37.4401L31.4107 22.4846C31.6419 22.2577 31.9529 22.1316 32.276 22.1339C32.599 22.1362 32.9082 22.2667 33.1361 22.497C33.3406 22.7036 33.4644 22.9772 33.4851 23.2679C33.5057 23.5586 33.4216 23.8471 33.2483 24.0807L23.7845 33.5942C23.2131 34.1839 22.8958 34.9761 22.9012 35.7995C22.9065 36.6227 23.2342 37.4108 23.8132 37.9929C24.3923 38.5751 25.1761 38.9045 25.995 38.9099C26.8139 38.9153 27.6019 38.5963 28.1885 38.0218L29.9789 36.2217C30.209 36.0854 30.4777 36.0295 30.7427 36.0631C31.0078 36.0965 31.2543 36.2173 31.4438 36.4066C31.6729 36.6357 31.8028 36.9464 31.8052 37.2713C31.8077 37.5962 31.6823 37.9089 31.4567 38.1413L24.3975 45.2391C23.8261 45.8288 23.5087 46.6211 23.5141 47.4444C23.5195 48.2677 23.8472 49.0558 24.4262 49.6379C25.0053 50.2201 25.7891 50.5495 26.6079 50.5549C27.4268 50.5603 28.2148 50.2412 28.8014 49.6667L40.5362 37.8708C40.7634 37.6425 41.0714 37.5142 41.3926 37.5143C41.7139 37.5144 42.0219 37.6427 42.249 37.8711C42.4761 38.0995 42.6037 38.4093 42.6036 38.7322C42.6035 39.0551 42.4759 39.3649 42.2487 39.5932L38.9529 42.9042C38.6551 43.1929 38.4175 43.5383 38.2539 43.9204C38.0904 44.3024 38.0042 44.7133 38.0004 45.1293C37.9966 45.5451 38.0753 45.9577 38.2319 46.3427C38.3884 46.7277 38.6197 47.0774 38.9123 47.3715C39.2047 47.6657 39.5526 47.8982 39.9356 48.0556C40.3185 48.213 40.7288 48.2921 41.1425 48.2882C41.5562 48.2845 41.9649 48.1978 42.345 48.0334C42.7249 47.869 43.0685 47.6301 43.3556 47.3306L50.8458 39.8008C51.4298 39.2138 51.7579 38.4175 51.758 37.5872C51.758 37.1761 51.6775 36.769 51.5211 36.3891C51.3646 36.0094 51.1352 35.6642 50.8461 35.3735C50.557 35.0827 50.2137 34.8522 49.8359 34.6948C49.4582 34.5374 49.0533 34.4565 48.6443 34.4564C47.8185 34.4564 47.0265 34.7862 46.4424 35.3732L45.7296 36.0899C45.5025 36.3183 45.1944 36.4466 44.8732 36.4467C44.552 36.4468 44.2439 36.3185 44.0167 36.0902C43.7895 35.8619 43.6619 35.5521 43.6618 35.2292C43.6618 34.9063 43.7894 34.5965 44.0164 34.3682L51.3717 26.977C51.9431 26.3872 52.2604 25.5949 52.2551 24.7717C52.2497 23.9484 51.922 23.1604 51.343 22.5782C50.7639 21.9961 49.9801 21.6667 49.1613 21.6612C48.3424 21.6558 47.5543 21.9749 46.9677 22.5493L34.94 34.6399C34.7088 34.8668 34.3978 34.9927 34.0746 34.9903C33.7515 34.9878 33.4425 34.8573 33.2146 34.627C33.0263 34.4366 32.9059 34.189 32.8725 33.9225C32.8389 33.6562 32.8942 33.3862 33.0295 33.1548Z" fill="#030303"/>
</g>
<path d="M71.1847 39.6542C70.1767 39.6542 69.2713 39.5702 68.4687 39.4022C67.666 39.2342 66.77 39.0102 65.7807 38.7302C65.1273 38.5435 64.6887 38.4409 64.4647 38.4222L64.7167 33.2422H66.9847L67.6007 36.8542C67.8433 37.1155 68.2727 37.3489 68.8887 37.5542C69.5233 37.7595 70.242 37.8622 71.0447 37.8622C72.2953 37.8622 73.2287 37.5915 73.8447 37.0502C74.4793 36.4902 74.7967 35.7155 74.7967 34.7262C74.7967 34.0729 74.61 33.5129 74.2367 33.0462C73.8633 32.5609 73.35 32.1315 72.6967 31.7582C72.0433 31.3662 71.1473 30.9182 70.0087 30.4142C68.4593 29.7049 67.1713 28.8649 66.1447 27.8942C65.1367 26.9049 64.6327 25.5702 64.6327 23.8902C64.6327 22.8449 64.9033 21.9022 65.4447 21.0622C65.986 20.2035 66.7887 19.5315 67.8527 19.0462C68.9353 18.5422 70.2513 18.2902 71.8007 18.2902C72.7153 18.2902 73.518 18.3555 74.2087 18.4862C74.918 18.6169 75.6833 18.7942 76.5047 19.0182C76.99 19.1489 77.354 19.2329 77.5967 19.2702L77.4287 24.1702H75.1887L74.6007 20.7262C74.4327 20.5582 74.0967 20.3995 73.5927 20.2502C73.0887 20.0822 72.5287 19.9982 71.9127 19.9982C70.7927 19.9982 69.9433 20.2595 69.3647 20.7822C68.8047 21.2862 68.5247 21.9675 68.5247 22.8262C68.5247 23.5169 68.73 24.1142 69.1407 24.6182C69.57 25.1222 70.0833 25.5515 70.6807 25.9062C71.278 26.2422 72.2207 26.7275 73.5087 27.3622C74.554 27.8662 75.45 28.3609 76.1967 28.8462C76.9433 29.3315 77.5873 29.9662 78.1287 30.7502C78.67 31.5155 78.9407 32.4209 78.9407 33.4662C78.9407 34.4929 78.6793 35.4729 78.1567 36.4062C77.6527 37.3395 76.8127 38.1142 75.6367 38.7302C74.4793 39.3462 72.9953 39.6542 71.1847 39.6542ZM80.6917 34.9782C80.6917 33.2795 81.5411 32.0009 83.2397 31.1422C84.9571 30.2835 87.1691 29.8449 89.8757 29.8262V29.1822C89.8757 28.4169 89.7917 27.8195 89.6237 27.3902C89.4744 26.9609 89.1851 26.6435 88.7557 26.4382C88.3451 26.2142 87.7384 26.1022 86.9357 26.1022C86.0211 26.1022 85.1997 26.2235 84.4717 26.4662C83.7437 26.6902 82.9877 26.9889 82.2037 27.3622L81.3357 25.5702C81.6157 25.3275 82.0824 25.0382 82.7357 24.7022C83.4077 24.3662 84.2011 24.0769 85.1157 23.8342C86.0304 23.5729 86.9731 23.4422 87.9437 23.4422C89.3811 23.4422 90.5011 23.6289 91.3037 24.0022C92.1251 24.3755 92.7131 24.9729 93.0677 25.7942C93.4224 26.6155 93.5997 27.7169 93.5997 29.0982V37.6662H95.1117V39.2342C94.7384 39.3275 94.2064 39.4209 93.5157 39.5142C92.8251 39.6075 92.2184 39.6542 91.6957 39.6542C91.0611 39.6542 90.6317 39.5609 90.4077 39.3742C90.2024 39.1875 90.0997 38.8049 90.0997 38.2262V37.4702C89.5957 38.0302 88.9424 38.5342 88.1397 38.9822C87.3371 39.4302 86.4317 39.6542 85.4237 39.6542C84.5651 39.6542 83.7717 39.4769 83.0437 39.1222C82.3344 38.7489 81.7651 38.2169 81.3357 37.5262C80.9064 36.8169 80.6917 35.9675 80.6917 34.9782ZM87.2157 37.3302C87.6077 37.3302 88.0557 37.2182 88.5597 36.9942C89.0637 36.7515 89.5024 36.4622 89.8757 36.1262V31.5342C88.1957 31.5342 86.9357 31.8235 86.0957 32.4022C85.2744 32.9622 84.8637 33.6902 84.8637 34.5862C84.8637 35.4822 85.0691 36.1635 85.4797 36.6302C85.9091 37.0969 86.4877 37.3302 87.2157 37.3302ZM96.5511 34.9782C96.5511 33.2795 97.4005 32.0009 99.0991 31.1422C100.816 30.2835 103.028 29.8449 105.735 29.8262V29.1822C105.735 28.4169 105.651 27.8195 105.483 27.3902C105.334 26.9609 105.044 26.6435 104.615 26.4382C104.204 26.2142 103.598 26.1022 102.795 26.1022C101.88 26.1022 101.059 26.2235 100.331 26.4662C99.6031 26.6902 98.8471 26.9889 98.0631 27.3622L97.1951 25.5702C97.4751 25.3275 97.9418 25.0382 98.5951 24.7022C99.2671 24.3662 100.06 24.0769 100.975 23.8342C101.89 23.5729 102.832 23.4422 103.803 23.4422C105.24 23.4422 106.36 23.6289 107.163 24.0022C107.984 24.3755 108.572 24.9729 108.927 25.7942C109.282 26.6155 109.459 27.7169 109.459 29.0982V37.6662H110.971V39.2342C110.598 39.3275 110.066 39.4209 109.375 39.5142C108.684 39.6075 108.078 39.6542 107.555 39.6542C106.92 39.6542 106.491 39.5609 106.267 39.3742C106.062 39.1875 105.959 38.8049 105.959 38.2262V37.4702C105.455 38.0302 104.802 38.5342 103.999 38.9822C103.196 39.4302 102.291 39.6542 101.283 39.6542C100.424 39.6542 99.6311 39.4769 98.9031 39.1222C98.1938 38.7489 97.6245 38.2169 97.1951 37.5262C96.7658 36.8169 96.5511 35.9675 96.5511 34.9782ZM103.075 37.3302C103.467 37.3302 103.915 37.2182 104.419 36.9942C104.923 36.7515 105.362 36.4622 105.735 36.1262V31.5342C104.055 31.5342 102.795 31.8235 101.955 32.4022C101.134 32.9622 100.723 33.6902 100.723 34.5862C100.723 35.4822 100.928 36.1635 101.339 36.6302C101.768 37.0969 102.347 37.3302 103.075 37.3302ZM115.826 37.0502C115.976 37.2742 116.312 37.4889 116.834 37.6942C117.376 37.8809 117.917 37.9742 118.458 37.9742C119.336 37.9742 119.989 37.7969 120.418 37.4422C120.866 37.0689 121.09 36.5835 121.09 35.9862C121.09 35.3702 120.82 34.8755 120.278 34.5022C119.737 34.1102 118.822 33.6342 117.534 33.0742L116.75 32.7382C115.462 32.1969 114.501 31.5435 113.866 30.7782C113.232 30.0129 112.914 29.0235 112.914 27.8102C112.914 26.9702 113.166 26.2235 113.67 25.5702C114.174 24.8982 114.884 24.3755 115.798 24.0022C116.713 23.6289 117.768 23.4422 118.962 23.4422C119.84 23.4422 120.586 23.4982 121.202 23.6102C121.837 23.7222 122.5 23.8715 123.19 24.0582C123.564 24.1889 123.844 24.2635 124.03 24.2822V27.9502H121.818L121.174 25.8222C121.062 25.6355 120.81 25.4675 120.418 25.3182C120.026 25.1689 119.578 25.0942 119.074 25.0942C118.309 25.0942 117.693 25.2622 117.226 25.5982C116.778 25.9155 116.554 26.3635 116.554 26.9422C116.554 27.4649 116.713 27.9035 117.03 28.2582C117.348 28.5942 117.693 28.8555 118.066 29.0422C118.44 29.2289 119.13 29.5369 120.138 29.9662C121.146 30.3955 121.977 30.8062 122.63 31.1982C123.302 31.5902 123.853 32.1035 124.282 32.7382C124.73 33.3542 124.954 34.1102 124.954 35.0062C124.954 36.3875 124.413 37.5075 123.33 38.3662C122.248 39.2249 120.689 39.6542 118.654 39.6542C117.702 39.6542 116.844 39.5702 116.078 39.4022C115.332 39.2342 114.464 39.0102 113.474 38.7302L112.858 38.5342V34.8382H115.182L115.826 37.0502ZM129.31 20.6422L127.154 20.2782V18.5422H136.114V20.2782L133.426 20.6422V37.3582L139.418 37.1062L141.182 31.8702L143.45 32.1782L142.582 39.3462H127.098V37.6662L129.31 37.3862V20.6422ZM147.585 46.3182C147.249 46.3182 146.885 46.2902 146.493 46.2342C146.12 46.1782 145.849 46.1129 145.681 46.0382V43.0422C145.812 43.1169 146.073 43.1915 146.465 43.2662C146.857 43.3409 147.212 43.3782 147.529 43.3782C148.463 43.3782 149.228 43.0702 149.825 42.4542C150.441 41.8382 151.011 40.8022 151.533 39.3462H150.021L144.757 25.7662L143.497 25.4022V23.7782H151.197V25.4022L149.153 25.7382L151.645 33.4942L152.653 36.7982L153.521 33.4942L155.817 25.7382L154.053 25.4022V23.7782H160.129V25.4022L158.757 25.7382C157.731 28.8742 156.713 31.8982 155.705 34.8102C154.697 37.7222 154.109 39.3555 153.941 39.7102C153.344 41.2782 152.775 42.5289 152.233 43.4622C151.692 44.3955 151.048 45.1049 150.301 45.5902C149.555 46.0755 148.649 46.3182 147.585 46.3182ZM162.712 26.4382L160.92 25.9342V24.0022L165.568 23.4142H165.652L166.352 23.9742V25.0662L166.324 25.7382C166.978 25.1222 167.827 24.5902 168.872 24.1422C169.918 23.6942 170.972 23.4702 172.036 23.4702C173.175 23.4702 174.062 23.6849 174.696 24.1142C175.35 24.5249 175.816 25.1782 176.096 26.0742C176.376 26.9702 176.516 28.1835 176.516 29.7142V37.4422L178.224 37.6662V39.3462H171V37.6662L172.512 37.4422V29.7142C172.512 28.7435 172.447 27.9875 172.316 27.4462C172.186 26.8862 171.943 26.4849 171.588 26.2422C171.252 25.9809 170.767 25.8502 170.132 25.8502C169.068 25.8502 167.93 26.3075 166.716 27.2222V37.4142L168.396 37.6662V39.3462H161.088V37.6662L162.712 37.4142V26.4382Z" fill="#030303"/>
</g>
<defs>
<filter id="filter0_d_75_6916" x="0" y="0" width="183.869" height="67.6924" filterUnits="userSpaceOnUse" color-interpolation-filters="sRGB">
<feFlood flood-opacity="0" result="BackgroundImageFix"/>
<feColorMatrix in="SourceAlpha" type="matrix" values="0 0 0 0 0 0 0 0 0 0 0 0 0 0 0 0 0 0 127 0" result="hardAlpha"/>
<feOffset dy="4"/>
<feGaussianBlur stdDeviation="2"/>
<feComposite in2="hardAlpha" operator="out"/>
<feColorMatrix type="matrix" values="0 0 0 0 0 0 0 0 0 0 0 0 0 0 0 0 0 0 0.25 0"/>
<feBlend mode="normal" in2="BackgroundImageFix" result="effect1_dropShadow_75_6916"/>
<feBlend mode="normal" in="SourceGraphic" in2="effect1_dropShadow_75_6916" result="shape"/>
</filter>
<clipPath id="clip0_75_6916">
<rect width="54.8688" height="59.6924" fill="white" transform="translate(4)"/>
</clipPath>
</defs>
</svg>
